<svg width="18" height="18" viewBox="0 0 18 18" fill="none" xmlns="http://www.w3.org/2000/svg">
<path d="M13.7242 11.045L16.4269 13.7486C16.6014 13.9231 16.6994 14.1598 16.6994 14.4065C16.6994 14.6533 16.6014 14.8899 16.4269 15.0644C15.4764 16.015 14.2148 16.5908 12.8739 16.6862C11.533 16.7816 10.2026 16.3901 9.12704 15.5837L7.51874 14.3777C5.73865 13.0425 4.15743 11.461 2.82254 9.68063L1.61654 8.07233C0.810131 6.99675 0.418696 5.66641 0.514087 4.32549C0.609477 2.98456 1.18529 1.72303 2.13584 0.772433C2.31035 0.597993 2.547 0.5 2.79374 0.5C3.04049 0.5 3.27713 0.597993 3.45164 0.772433L6.15524 3.47693C6.25005 3.57171 6.32526 3.68424 6.37657 3.80808C6.42789 3.93193 6.4543 4.06468 6.4543 4.19873C6.4543 4.33279 6.42789 4.46553 6.37657 4.58938C6.32526 4.71323 6.25005 4.82576 6.15524 4.92053L5.11304 5.96273C5.03221 6.04345 4.9788 6.14754 4.96039 6.26028C4.94198 6.37302 4.95949 6.48869 5.01044 6.59093C6.22201 9.01349 8.18659 10.9778 10.6093 12.1889C10.819 12.2942 11.0719 12.2528 11.2375 12.0872L12.2797 11.045C12.3745 10.9502 12.487 10.875 12.6109 10.8237C12.7347 10.7724 12.8675 10.746 13.0015 10.746C13.1356 10.746 13.2683 10.7724 13.3922 10.8237C13.516 10.875 13.6295 10.9502 13.7242 11.045Z" fill="white" stroke="white"/>
</svg>
