<svg width="25" height="25" viewBox="0 0 25 25" fill="none" xmlns="http://www.w3.org/2000/svg">
<path d="M12.5 25C19.4036 25 25 19.4036 25 12.5C25 5.59644 19.4036 0 12.5 0C5.59644 0 0 5.59644 0 12.5C0 19.4036 5.59644 25 12.5 25Z" fill="white"/>
<path d="M12.9118 4.58325C14.9001 4.58411 16.7663 5.35813 18.1696 6.76294C19.5729 8.16784 20.3452 10.0357 20.3444 12.0217C20.3427 16.1189 17.0099 19.4527 12.9118 19.4543H12.9089C11.665 19.4539 10.4427 19.1421 9.3571 18.55L5.41667 19.5833L6.47136 15.7317C5.82093 14.6045 5.47865 13.3258 5.47917 12.0159C5.4808 7.91772 8.81493 4.58334 12.9118 4.58325ZM12.9147 5.83911C9.50708 5.83911 6.73553 8.60974 6.73405 12.0159C6.73358 13.1832 7.05998 14.3204 7.67839 15.304L7.82585 15.5374L7.20085 17.8176L9.53972 17.2043L9.7653 17.3381C10.7138 17.9009 11.8013 18.199 12.9098 18.1995H12.9118C16.3169 18.1995 19.0882 15.4272 19.0895 12.0208C19.0901 10.3701 18.4482 8.81831 17.2819 7.65063C16.1156 6.48294 14.5647 5.83975 12.9147 5.83911ZM10.6364 8.59009C10.7504 8.5958 10.9036 8.54634 11.0544 8.90845C11.209 9.28001 11.5797 10.1931 11.6266 10.2874C11.673 10.3803 11.704 10.4886 11.6423 10.6125C11.5803 10.7364 11.5496 10.8147 11.4567 10.9231C11.3639 11.0314 11.2619 11.1651 11.1784 11.2483C11.0854 11.3409 10.9881 11.4413 11.0964 11.6272C11.2047 11.8131 11.5776 12.4209 12.1296 12.9133C12.839 13.5461 13.438 13.7423 13.6237 13.8352C13.8093 13.9281 13.9177 13.9132 14.026 13.7893C14.1344 13.6653 14.4902 13.2467 14.6139 13.0608C14.7377 12.875 14.8617 12.9061 15.0319 12.968C15.2029 13.0304 16.1147 13.4795 16.3005 13.5725C16.4862 13.6655 16.6105 13.7118 16.6569 13.7893C16.7031 13.8674 16.7029 14.2388 16.5485 14.6721C16.3937 15.1059 15.6515 15.5016 15.2946 15.5549C14.9747 15.6028 14.5695 15.6231 14.1247 15.4817C13.855 15.3961 13.509 15.2814 13.0661 15.0901C11.2032 14.2856 9.98617 12.4105 9.89323 12.2864C9.80037 12.1624 9.13542 11.2787 9.13542 10.3645C9.13556 9.45108 9.61443 9.00173 9.78484 8.81567C9.95507 8.62974 10.1571 8.58325 10.2809 8.58325C10.4046 8.58325 10.5283 8.58466 10.6364 8.59009Z" fill="#4D799D"/>
</svg>
